<?xml version="1.0" standalone="no"?>
<!DOCTYPE svg PUBLIC "-//W3C//DTD SVG 20010904//EN"
 "http://www.w3.org/TR/2001/REC-SVG-20010904/DTD/svg10.dtd">
<svg version="1.0" xmlns="http://www.w3.org/2000/svg"
 width="1200.000000pt" height="1200.000000pt" viewBox="0 0 1200.000000 1200.000000"
 preserveAspectRatio="xMidYMid meet">
<metadata>
Created by potrace 1.14, written by Peter Selinger 2001-2017
</metadata>
<g transform="translate(0.000000,1200.000000) scale(0.100000,-0.100000)"
fill="#000000" stroke="none">
<path d="M0 6000 l0 -6000 6000 0 6000 0 0 6000 0 6000 -6000 0 -6000 0 0
-6000z m5047 2930 c157 -261 363 -612 458 -780 95 -168 208 -362 251 -431 44
-70 111 -179 149 -242 39 -64 72 -116 75 -116 3 0 29 41 59 92 30 50 187 310
349 577 273 449 515 851 737 1227 l90 153 843 0 c743 0 843 -2 848 -15 4 -8 2
-21 -4 -28 -5 -6 -155 -253 -332 -547 -1144 -1898 -1778 -2955 -1807 -3015 -5
-11 -11 -103 -12 -205 -2 -102 -7 -331 -11 -510 -3 -179 -7 -809 -8 -1400 -1
-591 -2 -1081 -2 -1088 0 -10 -152 -12 -742 -10 l-743 3 -5 1595 -5 1595 -136
225 c-443 734 -567 940 -754 1255 -361 608 -395 665 -530 885 -313 510 -422
690 -569 942 -86 148 -156 274 -156 281 0 37 2 37 849 35 l824 -3 284 -475z"/>
<path d="M3190 9334 c0 -3 52 -92 117 -198 64 -105 128 -210 142 -233 14 -24
28 -43 31 -43 3 1 115 108 250 240 l245 239 -392 1 c-216 0 -393 -3 -393 -6z"/>
<path d="M4156 9213 c102 -294 116 -333 123 -332 5 0 291 351 354 435 l19 24
-270 0 -271 0 45 -127z"/>
<path d="M7354 9310 c191 -228 511 -589 516 -583 4 5 24 40 45 78 21 39 50 93
65 120 176 323 220 404 220 409 0 3 -196 6 -436 6 l-436 0 26 -30z"/>
<path d="M8314 9288 c3 -29 15 -141 26 -248 36 -345 42 -392 50 -383 4 4 58
94 120 198 62 105 148 249 192 322 43 73 81 139 84 148 5 13 -22 15 -236 15
l-242 0 6 -52z"/>
<path d="M3800 9069 l-245 -239 328 0 c258 0 328 3 325 13 -10 40 -152 453
-157 458 -3 4 -116 -100 -251 -232z"/>
<path d="M7009 8920 c-121 -200 -211 -361 -205 -363 25 -10 556 -80 562 -74 3
3 -18 133 -46 289 -29 156 -60 330 -71 388 -11 58 -20 108 -22 112 -1 4 -99
-154 -218 -352z"/>
<path d="M4721 9029 c-18 -129 -40 -285 -49 -347 -12 -86 -13 -115 -4 -121 6
-4 76 -15 155 -24 79 -10 154 -19 166 -22 57 -11 222 -27 227 -23 4 5 -392
669 -447 748 -14 21 -17 8 -48 -211z"/>
<path d="M8164 9127 c-39 -73 -108 -201 -153 -285 -46 -84 -81 -155 -79 -156
11 -8 370 -107 374 -103 3 3 -2 72 -11 153 -9 82 -18 169 -20 194 -9 83 -37
325 -39 327 0 1 -33 -58 -72 -130z"/>
<path d="M4500 9033 c-91 -113 -168 -211 -173 -218 -5 -9 31 -43 118 -109 69
-53 129 -96 134 -96 4 0 13 35 19 78 21 157 72 508 77 530 3 12 2 22 -2 21 -5
0 -82 -93 -173 -206z"/>
<path d="M7310 9224 c0 -12 9 -66 20 -120 29 -148 76 -397 95 -499 9 -49 18
-96 21 -103 3 -9 59 15 184 79 l181 92 -19 21 c-10 12 -115 131 -232 266 -272
313 -250 290 -250 264z"/>
<path d="M3540 8766 c0 -3 53 -94 118 -203 65 -109 172 -288 237 -398 132
-223 123 -210 130 -203 3 2 29 112 60 244 30 131 70 306 90 389 19 82 35 155
35 162 0 10 -68 13 -335 13 -184 0 -335 -2 -335 -4z"/>
<path d="M4285 8718 c-3 -7 -32 -130 -65 -273 -34 -143 -70 -298 -81 -343 -11
-46 -19 -88 -17 -93 2 -5 101 109 222 252 211 252 218 262 200 279 -11 9 -72
56 -137 104 -75 55 -119 82 -122 74z"/>
<path d="M7896 8538 c-3 -40 -8 -125 -11 -188 -3 -63 -8 -137 -10 -165 -2 -27
-7 -111 -10 -185 -3 -74 -8 -155 -10 -180 -4 -42 -3 -44 11 -25 46 60 425 708
417 714 -7 7 -359 101 -374 101 -4 0 -9 -33 -13 -72z"/>
<path d="M7655 8510 c-93 -49 -171 -93 -173 -98 -1 -5 39 -96 89 -203 93 -198
131 -278 179 -383 l27 -59 7 114 c4 63 9 141 11 174 3 33 7 105 10 160 13 235
16 283 21 333 3 28 4 52 2 52 -2 -1 -79 -41 -173 -90z"/>
<path d="M4660 8443 c0 -21 7 -123 14 -228 8 -104 18 -235 22 -290 3 -55 8
-101 9 -103 2 -2 119 128 260 289 278 318 268 300 175 312 -25 3 -136 17 -248
31 -112 14 -210 26 -218 26 -10 0 -14 -11 -14 -37z"/>
<path d="M6780 8476 c0 -3 29 -126 65 -273 36 -148 73 -298 81 -335 9 -37 19
-70 23 -73 4 -2 70 91 145 208 75 117 166 256 201 309 l64 96 -37 6 c-20 4
-109 15 -197 26 -88 11 -171 22 -185 25 -50 9 -160 17 -160 11z"/>
<path d="M4346 8156 c-127 -150 -231 -277 -233 -282 -2 -5 106 -29 239 -53
134 -24 251 -46 262 -49 17 -5 18 1 12 99 -4 57 -9 120 -11 139 -2 19 -7 85
-10 145 -4 61 -9 119 -11 129 -2 10 -4 47 -5 82 -1 35 -5 64 -8 64 -3 0 -109
-124 -235 -274z"/>
<path d="M6552 8164 c-88 -148 -163 -276 -166 -284 -5 -12 41 -27 240 -78 136
-35 249 -60 252 -57 5 5 -140 620 -158 669 -5 14 -45 -45 -168 -250z"/>
<path d="M5070 8118 c-124 -137 -243 -270 -265 -295 l-39 -46 44 7 c25 3 108
13 185 21 77 8 218 24 313 35 95 11 188 20 205 20 69 0 69 2 -72 256 -73 132
-136 242 -139 245 -4 4 -108 -106 -232 -243z"/>
<path d="M7211 8039 c-111 -171 -200 -313 -197 -316 4 -4 104 -14 296 -28 199
-14 348 -26 388 -31 23 -2 42 0 42 5 0 9 -38 91 -165 356 -32 66 -79 166 -106
223 -26 56 -50 102 -52 102 -3 0 -96 -140 -206 -311z"/>
<path d="M6316 7778 c-79 -124 -244 -409 -234 -405 113 44 726 302 724 305 -5
5 -449 122 -463 122 -7 0 -19 -10 -27 -22z"/>
<path d="M4120 7786 c0 -3 105 -180 233 -394 l232 -387 6 95 c4 52 10 145 14
205 3 61 8 121 10 135 2 14 7 77 10 140 l7 116 -228 43 c-126 23 -241 45 -256
48 -16 3 -28 3 -28 -1z"/>
<path d="M5475 7784 c-32 -6 -682 -84 -695 -84 -6 0 -10 -4 -8 -8 4 -11 495
-462 502 -462 3 0 6 4 6 8 0 5 54 109 121 233 67 123 132 245 145 272 l24 47
-37 -1 c-21 -1 -47 -3 -58 -5z"/>
<path d="M5497 7496 c-75 -145 -137 -265 -137 -268 0 -4 526 76 549 83 9 4
-232 403 -263 436 -9 10 -42 -45 -149 -251z"/>
<path d="M6985 7563 c4 -49 9 -95 10 -104 2 -8 6 -61 10 -117 4 -56 10 -102
13 -102 10 0 650 345 647 348 -4 4 -407 39 -551 47 -60 4 -115 8 -123 11 -11
4 -12 -11 -6 -83z"/>
<path d="M4699 7583 c0 -32 -2 -66 -4 -75 -2 -9 -6 -74 -10 -145 -4 -70 -9
-135 -10 -143 -6 -34 -17 -270 -12 -270 6 0 493 207 523 223 23 12 17 19 -221
237 -135 124 -250 227 -255 228 -6 2 -10 -21 -11 -55z"/>
<path d="M6517 7472 c-288 -120 -372 -158 -355 -164 13 -3 88 -14 168 -23 80
-9 195 -22 255 -30 61 -7 155 -18 210 -25 55 -6 112 -13 128 -15 32 -5 32 -11
13 145 -8 63 -18 147 -21 185 -4 39 -10 73 -14 77 -3 4 -176 -64 -384 -150z"/>
<path d="M7367 7341 c-175 -98 -322 -182 -327 -187 -7 -7 75 -507 93 -568 2
-5 124 193 272 440 148 247 275 459 283 472 8 12 10 22 6 21 -5 -1 -152 -81
-327 -178z"/>
<path d="M5835 7229 c-55 -11 -172 -32 -259 -47 l-159 -28 402 -162 c221 -88
401 -157 399 -152 -2 4 -59 98 -128 209 -78 127 -130 201 -140 200 -8 -1 -60
-10 -115 -20z"/>
<path d="M6060 7233 c1 -14 267 -428 274 -426 19 4 534 328 530 334 -2 3 -36
9 -76 13 -40 4 -107 11 -148 16 -72 9 -285 35 -380 45 -93 11 -136 16 -167 21
-18 3 -33 1 -33 -3z"/>
<path d="M5000 7011 c-141 -59 -265 -111 -275 -115 -17 -7 -14 -11 25 -28 112
-49 727 -310 743 -315 19 -6 19 -8 -148 385 -42 100 -80 182 -84 182 -3 -1
-121 -49 -261 -109z"/>
<path d="M6688 6937 c-152 -95 -277 -174 -277 -177 -1 -3 148 -55 329 -117
182 -62 330 -108 330 -104 0 11 -101 565 -103 568 -1 1 -127 -76 -279 -170z"/>
<path d="M5363 7088 c3 -7 56 -134 117 -283 62 -148 115 -274 120 -278 4 -4
143 43 308 105 203 76 297 115 287 121 -8 4 -99 43 -202 86 -104 43 -286 120
-406 170 -120 50 -221 91 -224 91 -3 0 -3 -6 0 -12z"/>
<path d="M4710 6794 c0 -8 553 -925 555 -922 2 3 231 507 251 554 l13 31 -112
46 c-62 25 -204 85 -317 132 -366 154 -390 164 -390 159z"/>
<path d="M6135 6641 c-55 -21 -189 -70 -297 -110 -109 -40 -198 -77 -198 -81
0 -18 333 -570 340 -563 7 8 270 773 270 786 0 11 -8 9 -115 -32z"/>
<path d="M6399 6658 c36 -91 331 -753 335 -753 3 0 80 124 171 275 l164 274
-331 113 c-182 62 -335 113 -340 113 -4 0 -3 -10 1 -22z"/>
<path d="M6186 6243 c-71 -213 -129 -394 -130 -402 -1 -9 4 -15 9 -15 6 1 105
5 220 8 205 6 385 16 385 21 0 1 -36 83 -80 181 -44 98 -122 272 -173 386 -51
115 -94 208 -97 208 -3 0 -63 -174 -134 -387z"/>
<path d="M5459 6107 l-125 -282 149 -3 c81 -1 213 -1 291 0 l144 3 -162 277
c-90 153 -165 280 -167 283 -3 2 -61 -123 -130 -278z"/>
<path d="M6587 5774 c-1 -1 -96 -5 -212 -9 -189 -7 -232 -9 -272 -14 -12 -1
335 -341 349 -341 5 0 189 323 206 362 3 5 -64 7 -71 2z"/>
<path d="M5300 5458 l0 -292 88 85 c48 46 183 177 300 291 l213 208 -301 0
-300 0 0 -292z"/>
<path d="M5896 5337 c-60 -210 -111 -390 -114 -400 -2 -10 122 71 300 195 168
117 305 217 304 222 -1 8 -245 243 -356 342 l-25 23 -109 -382z"/>
<path d="M6592 5504 l-92 -165 82 -260 c45 -142 84 -259 88 -259 3 0 7 91 8
203 1 111 5 302 8 425 3 122 4 222 2 222 -1 0 -45 -75 -96 -166z"/>
<path d="M5620 5371 c-157 -153 -283 -281 -280 -284 3 -2 81 -48 175 -100 117
-67 172 -92 176 -84 9 16 219 740 216 743 -1 2 -131 -122 -287 -275z"/>
<path d="M6275 5177 c-49 -34 -175 -121 -280 -191 -104 -71 -198 -136 -207
-145 -16 -15 -6 -26 156 -166 95 -82 177 -150 182 -152 5 -2 63 153 128 344
65 191 121 353 123 360 9 23 -11 14 -102 -50z"/>
<path d="M6332 4863 c-67 -196 -121 -358 -119 -360 3 -2 92 15 198 37 107 22
206 43 222 46 15 3 27 11 27 17 0 12 -197 607 -202 613 -2 1 -59 -157 -126
-353z"/>
<path d="M5300 4507 c0 -281 2 -508 4 -506 2 2 45 101 96 219 51 118 128 297
171 397 44 100 79 186 79 192 0 5 -79 54 -175 109 l-175 100 0 -511z"/>
<path d="M5713 4754 c-4 -10 -85 -199 -180 -418 -95 -220 -171 -401 -169 -403
6 -6 713 502 712 512 -1 5 -66 68 -146 139 -80 71 -159 143 -177 159 -30 28
-33 29 -40 11z"/>
<path d="M6430 4472 c-118 -25 -217 -47 -219 -48 -2 -2 32 -54 75 -116 89
-130 375 -541 381 -547 1 -2 3 167 3 377 0 299 -3 382 -12 381 -7 0 -110 -21
-228 -47z"/>
<path d="M6131 4264 c-17 -55 -68 -223 -115 -374 -47 -151 -83 -276 -82 -277
1 -2 81 4 177 12 170 14 236 20 369 31 80 6 154 14 157 17 1 2 -28 45 -64 97
-36 52 -140 203 -231 335 -91 132 -168 244 -173 249 -4 4 -21 -36 -38 -90z"/>
<path d="M5715 4089 c-192 -138 -351 -253 -353 -258 -3 -9 486 -207 494 -199
5 5 224 693 224 704 0 12 -44 -18 -365 -247z"/>
<path d="M5300 3253 c0 -278 2 -504 4 -502 22 23 513 800 508 803 -6 3 -285
116 -464 187 l-48 19 0 -507z"/>
<path d="M6599 3596 c-2 -2 -49 -7 -104 -10 -55 -4 -116 -9 -135 -11 -19 -2
-66 -7 -105 -10 -38 -3 -90 -7 -115 -10 -25 -2 -81 -7 -125 -11 -44 -3 -81 -7
-81 -7 -1 -1 42 -100 95 -219 l97 -217 185 187 c227 230 305 312 298 312 -3 0
-8 -2 -10 -4z"/>
<path d="M6425 3299 c-132 -137 -241 -253 -242 -257 -1 -5 290 -218 467 -341
20 -13 20 -10 20 418 0 237 -1 431 -2 430 -2 0 -111 -113 -243 -250z"/>
<path d="M5771 3333 c-55 -87 -165 -259 -244 -383 -79 -124 -143 -226 -142
-228 5 -6 675 329 675 338 0 8 -178 420 -185 428 -1 2 -48 -68 -104 -155z"/>
<path d="M5770 2830 l-335 -169 579 0 c326 -1 576 3 570 8 -16 14 -471 331
-475 330 -2 0 -155 -76 -339 -169z"/>
</g>
</svg>
